# xmcd CD database file
# Copyright (C) 1995 Ti Kan
#
# Track frame offsets:
#	183
#	17980
#	39748
#	61648
#	96215
#	114883
#	140790
#	160573
#	177503
#
# Disc length: 2609 seconds
#
# Revision: 1
# Processed by: cddbd v1.4b41PL1 Copyright (c) Steve Scherf et al.
# Submitted via: NotifyCDPlayer(CDDB) 1.07
#
DISCID=710a2f09
DTITLE=Swamp Dogg - I called for a rope and they threw me a rock
DYEAR=1900
DGENRE=
TTITLE0=I'd lie to you for your love
TTITLE1=Come to L.A.
TTITLE2=We need a revolution
TTITLE3=Kiss me hit me touch me
TTITLE4=Myocardial infarction (heartbreak)
TTITLE5=Shut your mouth
TTITLE6=Happy dog day
TTITLE7=Let the goodtimes roll
TTITLE8=1958
EXTD=
EXTT0=
EXTT1=
EXTT2=
EXTT3=
EXTT4=
EXTT5=
EXTT6=
EXTT7=
EXTT8=
PLAYORDER=
